<svg width="100" height="47" viewBox="0 0 1033 500" fill="none" xmlns="http://www.w3.org/2000/svg">
<path d="M655.471 255.453V221.119C655.471 216.414 654.554 211.987 652.719 207.84C650.965 203.613 648.532 199.945 645.422 196.834C642.312 193.724 638.643 191.292 634.416 189.537C630.269 187.703 625.843 186.786 621.137 186.786C616.432 186.786 611.966 187.703 607.739 189.537C603.592 191.292 599.963 193.724 596.853 196.834C593.742 199.945 591.27 203.613 589.436 207.84C587.681 211.987 586.804 216.414 586.804 221.119V255.453H655.471ZM689.804 324H655.471V289.667H586.804V324H552.59V221.119C552.59 211.629 554.384 202.736 557.973 194.442C561.562 186.068 566.427 178.771 572.568 172.55C578.789 166.329 586.046 161.424 594.34 157.835C602.714 154.247 611.647 152.452 621.137 152.452C630.628 152.452 639.52 154.247 647.814 157.835C656.188 161.424 663.486 166.329 669.707 172.55C675.927 178.771 680.832 186.068 684.421 194.442C688.01 202.736 689.804 211.629 689.804 221.119V324ZM851.949 324H731.842V152.452H766.175V289.667H851.949V324ZM1019.36 272.56C1019.36 279.658 1018 286.317 1015.29 292.538C1012.58 298.758 1008.87 304.221 1004.17 308.927C999.539 313.552 994.116 317.221 987.896 319.933C981.675 322.644 975.015 324 967.917 324H882.144V152.452H967.917C975.015 152.452 981.675 153.808 987.896 156.52C994.116 159.231 999.539 162.94 1004.17 167.645C1008.87 172.271 1012.58 177.694 1015.29 183.915C1018 190.135 1019.36 196.795 1019.36 203.893C1019.36 207.083 1018.92 210.353 1018.04 213.702C1017.16 217.052 1015.93 220.282 1014.33 223.392C1012.74 226.502 1010.82 229.334 1008.59 231.886C1006.36 234.438 1003.89 236.551 1001.17 238.226C1003.97 239.741 1006.48 241.815 1008.71 244.447C1010.94 246.999 1012.86 249.83 1014.45 252.94C1016.05 256.051 1017.24 259.321 1018.04 262.75C1018.92 266.1 1019.36 269.369 1019.36 272.56ZM916.477 289.667H967.917C970.31 289.667 972.543 289.228 974.617 288.351C976.69 287.473 978.485 286.277 980 284.762C981.595 283.167 982.831 281.332 983.708 279.259C984.586 277.185 985.024 274.952 985.024 272.56C985.024 270.167 984.586 267.934 983.708 265.86C982.831 263.787 981.595 261.992 980 260.477C978.485 258.882 976.69 257.646 974.617 256.769C972.543 255.891 970.31 255.453 967.917 255.453H916.477V289.667ZM916.477 221.119H967.917C970.31 221.119 972.543 220.681 974.617 219.803C976.69 218.926 978.485 217.73 980 216.214C981.595 214.619 982.831 212.785 983.708 210.711C984.586 208.558 985.024 206.285 985.024 203.893C985.024 201.5 984.586 199.267 983.708 197.193C982.831 195.12 981.595 193.325 980 191.81C978.485 190.215 976.69 188.979 974.617 188.102C972.543 187.224 970.31 186.786 967.917 186.786H916.477V221.119Z" fill="white"/>
<path d="M165.939 1.05092C161.223 3.05977 157.108 5.06861 149.509 9.0245C141.159 13.3822 139.717 14.4638 138.275 17.3998C134.821 24.3845 139.207 32.6671 146.896 33.5942C149.329 33.9033 151.221 33.1925 159.751 28.8039C164.317 26.4551 169.934 23.7045 172.247 22.6847C175.641 21.2012 176.752 20.5522 178.134 19.2542C184.171 13.4749 182.068 3.2761 174.229 0.463718C173.508 0.216476 171.916 0.000138161 170.625 0.000138161C168.732 0.000138161 167.951 0.18557 165.939 1.05092Z" fill="#00B8E4"/>
<path d="M260.452 22.0716C229.424 23.246 200.65 29.9525 173.497 42.3764C147.335 54.3368 123.696 70.9948 103.482 91.7323C51.6088 144.951 27.2794 218.97 37.1613 293.606C49.0858 383.788 110.991 459.908 195.573 488.341C204.975 491.524 212.214 493.471 222.306 495.511C238.976 498.91 253.333 500.208 271.415 499.899C284.992 499.652 294.603 498.756 306.948 496.561C372.818 484.848 430.909 443.991 465.991 384.653C495.877 334.123 506.36 273.456 495.307 215.199C485.004 161.053 457.07 112.779 415.38 76.9904C380.477 47.0432 336.564 28.0364 291.389 23.3078C282.258 22.3498 268.141 21.7935 260.452 22.0716ZM279.675 45.6833C293.432 46.5796 305.567 48.4957 318.122 51.679C362.245 62.9285 401.503 88.889 430.518 126.037C445.957 145.786 458.452 169.336 466.201 193.225C481.94 241.747 480.499 292.772 462.086 340.366C460.765 343.765 459.593 346.64 459.473 346.763C459.383 346.887 456.65 342.282 453.466 336.564C450.252 330.847 444.966 321.421 441.722 315.642C438.478 309.862 431.179 296.851 425.502 286.745C419.825 276.639 406.669 253.182 396.277 234.67C367.412 183.274 356.959 164.607 345.966 145.044C340.439 135.185 333.711 123.225 331.038 118.465C328.364 113.706 325.511 108.607 324.7 107.123L323.228 104.434L268.892 104.496L214.526 104.558L209.841 112.902C207.258 117.476 201.821 127.15 197.766 134.382C193.711 141.614 185.121 156.912 178.693 168.378C167.219 188.806 154.213 211.954 128.142 258.467C120.993 271.2 106.696 296.727 96.3931 315.178C86.0606 333.628 77.4101 349.05 77.1698 349.452L76.6892 350.225L76.1486 349.112C75.8482 348.494 74.7068 345.836 73.6255 343.178C63.0227 316.909 57.5561 289.063 57.5561 261.094C57.5561 193.504 89.3946 128.633 142.649 87.6528C174.998 62.774 213.355 48.3412 254.144 45.7142C259.911 45.3434 274.179 45.3434 279.675 45.6833ZM311.874 131.044C313.707 134.289 340.799 182.563 408.832 303.898C429.617 340.953 446.678 371.488 446.738 371.735C446.948 372.538 433.432 393.029 432.651 393.059C432.561 393.059 428.596 386.137 423.82 377.669C419.074 369.231 408.471 350.348 400.271 335.73C392.041 321.112 379.757 299.2 372.938 287.054C366.12 274.908 355.247 255.562 348.819 244.096C322.958 198.016 315.659 185.036 313.346 180.894C311.994 178.514 307.729 170.881 303.855 163.958L296.796 151.38H268.862H240.928L230.866 169.367C215.788 196.254 216.118 195.667 200.469 223.544C192.45 237.822 182.087 256.303 177.401 264.648C102.851 397.51 104.022 395.47 103.241 394.821C102.46 394.141 96.0327 385.117 92.6987 379.986C89.695 375.32 89.3946 374.763 89.725 374.145C89.9353 373.744 99.577 356.468 111.171 335.73C142.709 279.359 164.576 240.294 182.658 208.091C189.596 195.667 202.572 172.55 211.463 156.695L227.652 127.892H268.862H310.102L311.874 131.044ZM296.556 197.738C309.742 221.257 317.731 235.473 333.741 264.03C338.907 273.208 353.565 299.354 366.33 322.132C379.096 344.909 395.676 374.424 403.125 387.713L416.731 411.881L412.166 416.455C407.42 421.214 400.121 427.828 399.611 427.828C399.25 427.828 392.732 416.238 308.57 266.348L281.417 217.981H268.862H256.337L252.522 224.78C237.775 250.988 149.948 407.616 141.958 421.956C139.585 426.19 137.603 429.744 137.573 429.806C137.423 429.991 136.251 429.095 132.947 426.252C129.283 423.099 121.864 416.208 120.302 414.477L119.191 413.302L127.241 399.766C137.693 382.243 144.842 369.664 173.707 318.114C192.42 284.736 250.69 180.801 252.252 178.02L254.054 174.868L268.922 174.929L283.82 175.022L296.556 197.738ZM285.082 271.292C308.841 313.664 357.319 400.044 373.809 429.342C377.624 436.141 380.748 441.797 380.748 441.921C380.748 442.539 361.464 454.005 361.074 453.603C360.954 453.448 321.456 383.262 297.547 340.675C287.905 323.491 277.573 305.103 274.599 299.787C271.595 294.471 269.042 290.083 268.892 290.052C268.772 290.021 258.86 307.452 246.876 328.776C218.131 379.986 176.14 454.685 175.99 454.87C175.719 455.179 162.563 447.824 157.968 444.795L156.136 443.59L165.297 427.21C183.258 395.099 221.104 327.571 262.344 254.047C265.919 247.712 268.922 242.643 269.042 242.767C269.133 242.89 276.371 255.747 285.082 271.292ZM280.126 356.437C286.103 367.13 302.022 395.501 315.509 419.422C328.995 443.435 339.868 463.06 339.718 463.215C339.328 463.585 332.089 466.089 326.923 467.665C306.738 473.753 288.116 476.504 267.06 476.504C244.202 476.504 223.808 473.104 201.43 465.625C199.358 464.945 197.586 464.265 197.436 464.173C197.315 464.049 205.786 448.72 216.238 430.115C234.591 397.51 249.369 371.209 262.555 347.721C266.009 341.54 268.922 336.626 269.042 336.75C269.133 336.874 274.119 345.712 280.126 356.437Z" fill="#00B8E4"/>
<path d="M103.312 40.6715C102.411 40.9188 100.999 41.5987 100.158 42.155C94.6616 45.9872 76.6698 63.7269 68.1995 73.7093C60.9607 82.2083 53.1212 92.5925 47.9249 100.535C46.0927 103.317 45.3118 104.8 45.0715 105.975C43.9301 111.537 46.303 116.544 51.1989 118.893C52.7608 119.635 53.3615 119.758 55.7044 119.758C58.0172 119.727 58.6479 119.604 60.1197 118.893C62.2523 117.811 63.7842 116.297 65.7966 113.206C68.2295 109.498 74.6273 100.721 77.9313 96.5793C87.8733 84.0935 98.1158 73.3385 110.28 62.6143C112.984 60.2346 114.996 58.1948 115.447 57.3913C119.201 50.7467 115.957 42.5258 108.869 40.6406C106.706 40.0843 105.475 40.0843 103.312 40.6715Z" fill="#00B8E4"/>
<path d="M27.4106 144.019C25.5484 144.791 23.0854 146.986 22.0642 148.778C21.133 150.416 18.1895 158.081 15.5763 165.56C-0.523197 211.825 -4.27774 263.932 4.94343 312.762C6.11484 318.974 7.61666 321.416 11.4613 323.486C12.9031 324.259 13.3536 324.352 16.0569 324.352C18.7001 324.352 19.2708 324.259 20.7726 323.517C22.9653 322.466 24.8876 320.488 25.9989 318.17C26.7498 316.563 26.87 315.976 26.87 313.689C26.87 312.237 26.6297 309.61 26.3594 307.817C25.6385 303.336 24.5572 292.55 22.9352 273.821L21.5836 257.905L21.914 249.715C23.1154 219.026 28.8524 191.149 39.5754 163.829L42.1585 157.154V154.372C42.1585 151.962 42.0384 151.343 41.2875 149.767C40.2362 147.511 38.404 145.564 36.2714 144.452C34.0787 143.277 29.7835 143.061 27.4106 144.019Z" fill="#00B8E4"/>
<path d="M29.1229 353.032C25.7288 353.804 22.5149 356.678 21.3134 359.985C20.7728 361.469 20.6826 362.211 20.8028 364.528C20.9229 367.186 21.013 367.526 23.1156 372.409C24.3471 375.222 27.0804 381.094 29.183 385.451C33.5983 394.507 34.5895 395.897 37.7734 397.505C39.5756 398.432 40.0261 398.524 42.4891 398.524C44.9521 398.524 45.4027 398.432 47.2048 397.505C51.1396 395.527 53.2422 392.003 53.2722 387.398L53.3022 384.895L48.7367 375.5C46.2437 370.308 43.4803 364.405 42.6093 362.365C41.7682 360.325 40.6569 358.038 40.1463 357.297C37.8935 353.928 33.2079 352.104 29.1229 353.032Z" fill="#00B8E4"/>
<path d="M67.5696 419.664C63.9652 420.807 61.1418 423.898 60.1806 427.73C59.5799 430.202 59.7901 432.767 60.7513 434.962C61.8026 437.341 70.1227 447.262 77.4816 454.988C82.1973 459.933 83.4589 460.644 87.5438 460.644C90.0068 460.644 90.4573 460.551 92.2295 459.655C94.6024 458.45 96.4346 456.503 97.546 454.061C98.2368 452.547 98.3569 451.898 98.3269 449.518C98.3269 445.439 97.6661 444.172 93.0405 439.227C88.7152 434.653 84.7204 430.14 80.8156 425.474C77.6618 421.703 76.6406 420.807 74.478 419.973C72.9161 419.355 69.1014 419.2 67.5696 419.664Z" fill="#00B8E4"/>
</svg>
